HIERARCHY
ROOT Hips
{
	OFFSET -0.179506 -22.333345 2.821913
	CHANNELS 6 Xposition Yposition Zposition Zrotation Yrotation Xrotation 
	JOINT LeftUpLeg
	{
		OFFSET 6.951974 -9.140623 -0.681533
		CHANNELS 3 Zrotation Yrotation Xrotation
		JOINT LeftLeg
		{
			OFFSET 3.427654 -37.519855 -0.449580
			CHANNELS 3 Zrotation Yrotation Xrotation
			JOINT LeftFoot
			{
				OFFSET -1.359570 -39.796059 -4.369333
				CHANNELS 3 Zrotation Yrotation Xrotation
				JOINT LeftToe
				{
					OFFSET 2.635814 -5.579078 11.928840
					CHANNELS 3 Zrotation Yrotation Xrotation
					End Site
					{
						OFFSET 0.000000 0.000000 0.000000
					}
				}
			}
		}
	}
	JOINT RightUpLeg
	{
		OFFSET -6.767048 -9.052170 -0.431982
		CHANNELS 3 Zrotation Yrotation Xrotation
		JOINT RightLeg
		{
			OFFSET -3.829005 -38.256897 -0.885003
			CHANNELS 3 Zrotation Yrotation Xrotation
			JOINT RightFoot
			{
				OFFSET 1.577377 -39.841461 -4.231180
				CHANNELS 3 Zrotation Yrotation Xrotation
				JOINT RightToe
				{
					OFFSET -2.537174 -4.814398 12.334795
					CHANNELS 3 Zrotation Yrotation Xrotation
					End Site
					{
						OFFSET 0.000000 0.000000 0.000000
					}
				}
			}
		}
	}
	JOINT Spine
	{
		OFFSET -0.253288 10.896323 -2.669631
		CHANNELS 3 Zrotation Yrotation Xrotation
		JOINT Spine1
		{
			OFFSET 0.548704 13.518043 0.109247
			CHANNELS 3 Zrotation Yrotation Xrotation
			JOINT Spine2
			{
				OFFSET 0.145701 5.292222 2.542457
				CHANNELS 3 Zrotation Yrotation Xrotation
				JOINT Neck
				{
					OFFSET -0.277840 21.387037 -4.285703
					CHANNELS 3 Zrotation Yrotation Xrotation
					JOINT Head
					{
						OFFSET 0.515184 6.496960 5.134897
						CHANNELS 3 Zrotation Yrotation Xrotation
						End Site
						{
							OFFSET 0.000000 0.000000 0.000000
						}
					}
				}
				JOINT LeftShoulder
				{
					OFFSET 7.884473 12.174932 -3.408961
					CHANNELS 3 Zrotation Yrotation Xrotation
					JOINT LeftArm
					{
						OFFSET 9.097692 3.046888 -0.886815
						CHANNELS 3 Zrotation Yrotation Xrotation
						JOINT LeftForeArm
						{
							OFFSET 25.961220 -1.277207 -2.745643
							CHANNELS 3 Zrotation Yrotation Xrotation
							JOINT LeftHand
							{
								OFFSET 24.923361 0.898606 -0.117091
								CHANNELS 3 Zrotation Yrotation Xrotation
								End Site
								{
									OFFSET 0.000000 0.000000 0.000000
								}
							}
						}
					}
				}
				JOINT RightShoulder
				{
					OFFSET -8.175920 11.883285 -3.861528
					CHANNELS 3 Zrotation Yrotation Xrotation
					JOINT RightArm
					{
						OFFSET -9.601238 3.255117 -0.914307
						CHANNELS 3 Zrotation Yrotation Xrotation
						JOINT RightForeArm
						{
							OFFSET -25.374195 -1.332924 -2.140099
							CHANNELS 3 Zrotation Yrotation Xrotation
							JOINT RightHand
							{
								OFFSET -25.529810 0.777228 -0.555919
								CHANNELS 3 Zrotation Yrotation Xrotation
								End Site
								{
									OFFSET 0.000000 0.000000 0.000000
								}
							}
						}
					}
				}
			}
		}
	}
}
MOTION
Frames: 8
Frame Time: 0.033333
-10.084553 61.628471 1.868969 99.864382 -47.330047 161.513377 -3.392763 1.538908 -2.717079 -2.785976 -8.727891 10.821280 -7.888390 6.753394 12.457194 -1.455266 -0.975275 -2.976689 -6.043677 -8.386581 1.181021 -6.828280 -3.694784 3.943520 15.101774 -16.482424 28.551878 -7.469358 3.388143 -1.850798 -1.963539 0.837619 14.692620 1.429907 -1.853242 -9.095180 3.952102 0.767893 -0.633156 -7.493002 -8.039385 5.332496 7.982318 6.068708 -12.827185 25.026801 -13.503266 -18.369257 26.035254 -20.402021 -28.355782 1.053607 -38.746423 -25.493212 4.784721 -11.066235 -24.905103 -27.282093 13.369124 -10.558411 -19.381755 8.093710 -29.577393 -11.809830 17.423331 -52.012624 1.325411 7.238898 -29.953693 
-10.202029 61.649994 2.337891 100.124455 -47.547008 161.162938 -3.234468 1.392852 -3.288549 -2.422828 -8.742728 10.785371 -8.080596 7.040631 13.612557 -1.426120 -0.968481 -2.919055 -5.699858 -8.477192 1.167773 -6.616502 -3.850830 3.761591 14.547469 -16.745394 28.759451 -7.404918 3.345653 -1.862061 -2.026518 0.957971 14.747303 1.420899 -1.837571 -8.757240 3.968389 0.808890 -0.758164 -7.417216 -8.270831 5.418186 8.183729 6.339322 -12.595199 25.755487 -13.992608 -18.861016 26.208317 -21.584345 -28.538114 1.121989 -39.973416 -25.257299 4.587373 -10.964072 -26.048441 -27.924432 13.883529 -10.795765 -19.781592 8.293933 -30.000319 -11.454455 17.322659 -51.923610 1.813133 7.326976 -30.340544 
-10.264460 61.668541 2.439011 99.550957 -47.020631 161.762458 -3.306156 1.195997 -4.050321 -2.156468 -8.385662 10.855623 -7.921240 7.493534 14.615971 -1.382790 -1.019731 -2.972436 -5.491692 -8.580872 1.136289 -6.527067 -4.052741 2.983100 13.996602 -17.145702 28.787791 -7.574959 3.398192 -1.888145 -2.057176 1.112101 14.816021 1.425830 -1.853079 -8.508409 3.833864 0.894678 -0.953240 -7.339029 -8.763500 5.439085 8.341949 6.281231 -12.539209 26.296478 -13.960443 -19.373865 25.900308 -22.693980 -28.733994 1.621226 -40.739017 -24.596857 4.811424 -10.795029 -26.099052 -28.903044 14.355696 -11.053152 -20.100842 8.609275 -30.311386 -11.898707 17.721899 -51.776416 2.149361 7.299983 -30.074339 
-10.357967 61.686256 2.637358 99.507765 -46.687761 161.733141 -3.118311 1.163041 -4.506885 -1.920738 -8.402916 10.807681 -7.771086 7.987003 15.063449 -1.376607 -0.959089 -2.871181 -5.287998 -8.661201 1.042131 -6.149490 -4.131813 3.043627 13.156084 -17.577213 28.568188 -7.208786 3.179651 -1.789332 -2.006271 1.151270 15.035093 1.470062 -1.851788 -8.307295 3.814254 0.940460 -1.037525 -7.222075 -8.817555 5.582193 8.274548 6.270252 -12.341287 26.635800 -14.363051 -19.663505 26.164991 -23.560183 -29.178973 1.816028 -41.418126 -24.520554 4.420569 -10.797908 -25.669021 -29.352061 14.767872 -11.342094 -20.703611 9.000145 -30.727516 -12.018704 18.059730 -51.567055 2.670713 7.212963 -29.821082 
-10.441564 61.703423 2.817467 99.286863 -46.503034 161.834390 -3.001121 1.104349 -4.857350 -1.771375 -8.239117 10.520520 -7.709712 8.209591 15.759253 -1.347809 -0.957165 -2.849757 -5.115049 -8.746772 1.084485 -5.960354 -4.225898 2.874656 12.209269 -18.041546 28.438757 -7.083923 3.128942 -1.774960 -1.965375 1.195611 15.220240 1.462023 -1.802446 -8.117196 3.728247 0.976839 -1.231817 -7.189236 -9.130451 5.677714 8.345720 6.063222 -12.043753 27.011811 -14.651827 -19.906662 26.405163 -24.506405 -29.432082 1.735227 -42.125381 -23.766112 4.468603 -10.670252 -25.234777 -29.886036 15.200661 -11.535937 -21.384339 9.242839 -31.105511 -11.827705 18.080794 -51.301689 2.930405 7.124005 -29.473043 
-10.567516 61.719597 2.754155 98.926923 -46.794003 161.916516 -2.954928 0.974829 -5.206284 -1.662744 -8.127287 10.551891 -7.865243 8.289649 16.131247 -1.330355 -0.978518 -2.808800 -4.944091 -8.757624 1.115443 -5.958593 -4.270523 3.072954 11.476683 -18.255957 27.857008 -7.060315 3.130072 -1.788762 -1.927351 1.236648 15.380749 1.265382 -1.773865 -8.019300 3.678640 1.045379 -1.260597 -7.200555 -9.518616 5.795504 8.501622 5.802102 -11.850792 27.447888 -15.049122 -20.189143 26.575302 -25.310974 -29.630107 1.814445 -42.641823 -23.445692 4.634822 -10.607728 -25.165649 -30.583730 15.687016 -11.879524 -21.763554 9.396653 -31.259899 -11.874629 18.096036 -51.048965 2.850281 6.835201 -29.153664 
-10.644830 61.736473 3.127435 98.806663 -46.394983 162.039530 -2.893313 0.872993 -5.641217 -1.292450 -8.062829 10.114327 -7.688856 8.609896 16.736033 -1.325126 -1.003550 -2.853988 -4.737287 -8.844771 0.895561 -5.746111 -4.599630 2.975825 10.804036 -18.670327 27.999385 -7.209478 3.092933 -1.805209 -1.869974 1.287280 15.493643 1.169987 -1.709163 -7.846198 3.572351 1.180116 -1.422054 -7.145066 -9.716303 5.995501 8.584791 5.751712 -11.859033 27.910514 -15.300788 -20.574654 26.646231 -26.253896 -29.838666 1.943616 -43.456169 -22.993105 4.512152 -10.623528 -24.798498 -31.070322 16.162648 -11.977225 -21.970260 9.527087 -31.587105 -11.593667 18.053717 -50.732714 3.204229 6.725595 -28.942276 
-10.769116 61.753479 3.574828 98.682685 -45.958643 162.369175 -2.806955 0.562121 -6.246279 -0.992173 -7.883518 9.546993 -7.458875 8.881490 17.510285 -1.399161 -0.989973 -2.899115 -4.357523 -8.877455 0.577276 -5.574362 -4.752727 2.419945 10.014837 -19.261142 28.490348 -7.406723 3.125539 -1.838365 -1.982012 1.356403 15.470563 1.028194 -1.551379 -8.049109 3.624295 1.158603 -1.347889 -7.362306 -10.474979 6.126844 8.766689 5.557351 -11.892905 28.373056 -15.360263 -20.772130 27.120378 -27.288954 -30.052303 1.459348 -44.138246 -22.072344 4.062743 -10.414477 -25.701597 -31.649097 16.350799 -12.178493 -22.258909 9.864318 -31.588199 -11.090354 18.132951 -50.649248 3.869106 7.109747 -29.924850 
